# xmcd
#
# Track frame offsets:
#	150
#	22485
#	39815
#	56967
#	71657
#	95480
#	110852
#	131352
#	146805
#	167747
#	190255
#	205737
#	226440
#	245712
#	260827
#	279225
#	298110
#	325227
#
# Disc length: 4576 seconds
#
# Revision: 0
# Processed by: cddbd v1.4PL0 Copyright (c) Steve Scherf et al.
# Submitted via: EasyCDDAExtractor 4.5.0.2
#
DISCID=2311de12
DTITLE=Robbin Thompson - The Vinyl Years
DYEAR=1999
DGENRE=Blues
TTITLE0=highway 101
TTITLE1=boy from boston
TTITLE2=it's my turn
TTITLE3=midnite man
TTITLE4=lover come quickly
TTITLE5=dream on melinda
TTITLE6=take me away
TTITLE7=like a river
TTITLE8=another cup of coffee and a cigarette
TTITLE9=another day another dollar
TTITLE10=sweet virginia breeze
TTITLE11=magnolia
TTITLE12=dream river
TTITLE13=little misunderstood
TTITLE14=daddy's money
TTITLE15=spirit
TTITLE16=he's guilty
TTITLE17=movin' on up
EXTD=
EXTT0=
EXTT1=
EXTT2=
EXTT3=
EXTT4=
EXTT5=
EXTT6=
EXTT7=
EXTT8=
EXTT9=
EXTT10=
EXTT11=
EXTT12=
EXTT13=
EXTT14=
EXTT15=
EXTT16=
EXTT17=
PLAYORDER=
